<svg version="1.0" xmlns="http://www.w3.org/2000/svg" width="30px" height="30px"
        viewBox="0 0 121.000000 158.000000" preserveAspectRatio="xMidYMid meet">
        <g transform="translate(0.000000,158.000000) scale(0.100000,-0.100000)" fill="#000000" stroke="none">
          <path d="M10 1111 c0 -488 4 -542 50 -664 33 -88 113 -201 183 -258 66 -53
211 -130 289 -153 45 -13 52 -12 128 14 184 64 333 188 407 340 71 146 73 166
73 704 l0 476 -565 0 -565 0 0 -459z m1088 -53 c-4 -463 -4 -475 -27 -543 -67
-202 -191 -330 -406 -416 l-79 -31 -56 17 c-176 55 -338 186 -405 326 -68 145
-68 147 -73 642 -2 247 -1 455 2 463 5 12 84 14 526 14 l521 0 -3 -472z" />
          <path d="M120 1344 l0 -126 33 -33 c44 -44 108 -55 173 -30 72 27 84 56 84
198 l0 117 -40 0 -40 0 0 -113 c0 -126 -6 -143 -57 -153 -26 -5 -37 -1 -57 19
-25 25 -26 31 -26 137 l0 110 -35 0 -35 0 0 -126z" />
          <path d="M470 1310 l0 -160 79 0 c43 0 92 5 110 11 60 21 78 109 28 144 -19
14 -20 16 -4 33 19 21 22 64 7 92 -14 26 -63 40 -146 40 l-74 0 0 -160z m134
100 c48 -18 23 -70 -33 -70 -18 0 -21 6 -21 40 0 43 8 48 54 30z m17 -130 c11
-6 19 -21 19 -35 0 -27 -25 -45 -64 -45 -24 0 -26 3 -26 45 0 42 2 45 26 45
14 0 34 -5 45 -10z" />
          <path d="M832 1450 c-54 -33 -74 -75 -70 -150 4 -71 22 -106 70 -134 39 -24
106 -29 158 -13 41 12 45 16 42 43 -2 16 -5 30 -6 31 -1 2 -21 -5 -44 -14 -78
-30 -145 14 -145 96 0 91 68 126 165 86 26 -11 37 43 13 62 -30 21 -143 17
-183 -7z" />
          <path d="M195 1095 c-22 -8 -48 -15 -57 -15 -14 0 -18 -9 -18 -40 0 -45 1 -46
60 -25 55 20 121 19 186 -1 44 -15 58 -15 95 -4 76 22 148 24 211 4 55 -16 62
-16 112 -1 66 21 137 21 195 1 50 -17 64 -10 59 32 -3 26 -9 30 -80 48 -69 18
-82 19 -125 7 -80 -23 -122 -24 -185 -5 -53 16 -66 16 -116 5 -94 -22 -136
-24 -186 -7 -57 19 -98 20 -151 1z" />
          <path d="M173 961 c-50 -15 -53 -18 -53 -48 0 -39 6 -40 90 -16 56 15 64 15
120 0 69 -20 124 -22 167 -6 25 8 32 17 35 45 4 35 4 36 -26 29 -78 -16 -108
-16 -153 -1 -57 20 -111 19 -180 -3z" />
          <path d="M556 847 c-31 -235 -38 -277 -45 -273 -4 3 -47 72 -96 155 -49 83
-90 149 -92 148 -1 -2 13 -70 32 -152 19 -83 37 -161 41 -175 4 -19 -19 -1
-93 73 -54 53 -101 97 -105 97 -4 0 16 -55 43 -121 27 -67 48 -123 47 -125 -2
-1 -39 24 -82 57 -44 32 -81 59 -83 59 -1 0 7 -24 18 -52 67 -172 158 -276
304 -348 110 -55 144 -57 238 -13 153 72 241 160 306 305 52 115 51 116 -31
56 -40 -30 -79 -58 -85 -62 -14 -8 -17 -16 46 138 23 55 41 101 41 104 0 2
-45 -37 -100 -88 -55 -51 -100 -87 -100 -82 0 6 16 79 35 163 20 83 34 154 32
156 -2 2 -45 -65 -95 -149 -53 -88 -93 -146 -96 -138 -3 8 -16 100 -30 204
-14 104 -27 191 -29 192 -2 2 -11 -56 -21 -129z" />
          <path d="M620 945 c0 -28 5 -37 31 -51 34 -17 109 -15 191 6 40 9 57 9 102 -4
84 -25 96 -22 96 19 0 28 -4 35 -19 35 -10 0 -35 7 -54 15 -20 8 -56 15 -80
15 -25 0 -64 -7 -87 -15 -53 -19 -86 -19 -139 0 l-41 14 0 -34z" />
          <path d="M168 832 c-44 -14 -48 -18 -48 -49 0 -38 12 -41 75 -18 22 8 55 14
73 15 33 0 41 16 26 54 -8 20 -62 20 -126 -2z" />
          <path d="M860 838 c0 -7 -3 -23 -6 -35 -6 -21 -3 -23 29 -23 19 0 54 -7 77
-15 66 -23 80 -20 80 18 0 31 -3 33 -60 50 -70 20 -120 22 -120 5z" />
          <path d="M475 830 c-11 -5 -32 -9 -47 -9 l-27 -1 21 -36 c18 -30 25 -35 47
-29 33 8 37 13 46 53 7 34 -1 39 -40 22z" />
          <path d="M640 805 c0 -29 5 -37 26 -45 38 -15 42 -13 64 22 l19 32 -47 13
c-64 17 -62 17 -62 -22z" />
        </g>
      </svg>